<?xml version="1.0" standalone="no"?>
<!DOCTYPE svg PUBLIC "-//W3C//DTD SVG 20010904//EN"
 "http://www.w3.org/TR/2001/REC-SVG-20010904/DTD/svg10.dtd">
<svg version="1.0" xmlns="http://www.w3.org/2000/svg"
 width="260.000000pt" height="260.000000pt" viewBox="0 0 260.000000 260.000000"
 preserveAspectRatio="xMidYMid meet">
<metadata>
Created by potrace 1.14, written by Peter Selinger 2001-2017
</metadata>
<g transform="translate(0.000000,260.000000) scale(0.100000,-0.100000)"
fill="#000000" stroke="none">
<path d="M1194 2342 c-86 -41 -111 -119 -53 -173 86 -80 276 -61 322 34 18 36
18 38 0 74 -24 49 -80 77 -163 81 -48 2 -76 -2 -106 -16z m134 -83 c35 -12 50
-42 32 -64 -33 -39 -140 -24 -140 20 0 30 18 44 71 54 3 0 20 -4 37 -10z"/>
<path d="M1500 2130 c-20 -5 -69 -25 -110 -44 -41 -20 -87 -36 -103 -36 -16 0
-59 13 -97 30 -166 73 -279 59 -401 -49 -59 -51 -87 -117 -95 -218 -9 -102
-22 -132 -80 -178 -132 -105 -173 -166 -182 -271 -11 -143 29 -226 148 -309
41 -29 82 -63 92 -76 11 -15 21 -57 28 -113 12 -112 43 -179 111 -240 63 -56
139 -86 222 -86 51 0 77 7 147 40 48 22 100 40 120 40 19 0 64 -14 98 -30 149
-70 284 -52 400 53 60 56 82 108 93 224 5 55 15 106 24 120 9 13 46 45 83 72
127 93 174 198 152 338 -18 110 -54 160 -178 243 -61 41 -78 72 -87 160 -15
152 -69 237 -187 294 -79 38 -143 50 -198 36z m-363 -92 c56 -26 108 -88 122
-143 13 -52 15 -145 2 -145 -5 0 -23 -3 -40 -6 -28 -6 -31 -4 -31 17 0 46 -42
102 -91 123 -147 60 -255 -112 -144 -230 l35 -36 -23 -28 -23 -27 -38 19 c-60
31 -123 100 -136 150 -15 54 -8 144 15 189 22 43 72 96 108 116 70 36 170 37
244 1z m509 17 c33 -10 62 -28 91 -57 61 -64 83 -115 83 -193 0 -99 -35 -156
-137 -219 l-42 -26 -20 27 c-26 32 -26 35 0 59 73 66 62 196 -20 239 -79 40
-180 -11 -203 -103 -9 -37 -14 -43 -32 -38 -12 3 -30 6 -40 6 -17 0 -18 6 -13
72 8 95 38 153 101 196 79 53 144 63 232 37z m-540 -230 c24 -16 58 -81 49
-95 -3 -6 -12 -10 -18 -10 -7 0 -37 -16 -66 -35 -59 -39 -69 -37 -97 16 -29
57 -13 112 39 134 33 15 58 12 93 -10z m492 -12 c28 -31 29 -84 1 -129 -11
-19 -24 -34 -27 -34 -4 0 -24 12 -45 26 -21 14 -54 32 -72 40 -32 13 -34 16
-24 42 32 85 114 113 167 55z m-150 -156 c28 -15 52 -30 52 -32 0 -3 -96 -5
-212 -5 -200 0 -211 1 -189 16 57 41 113 54 206 51 74 -3 99 -8 143 -30z
m-590 -99 c46 -22 62 -34 58 -45 -4 -8 -9 -25 -12 -37 -5 -22 -7 -22 -52 -11
-78 20 -142 -7 -178 -77 -43 -83 31 -188 133 -188 23 0 53 4 66 9 22 9 26 7
31 -14 3 -13 8 -29 11 -37 9 -24 -98 -72 -170 -76 -97 -6 -183 45 -229 138
-31 61 -38 102 -25 159 21 99 97 183 187 207 60 16 102 10 180 -28z m1093 11
c129 -65 181 -220 117 -345 -70 -134 -199 -179 -334 -115 -34 16 -64 33 -66
38 -3 4 1 22 8 40 13 30 15 32 45 21 17 -6 51 -8 77 -5 38 4 53 12 84 46 31
33 38 47 38 82 0 52 -28 100 -73 124 -27 14 -47 17 -96 12 l-63 -5 -13 31
c-13 31 -13 32 28 56 87 52 172 59 248 20z m-801 -58 c0 -33 -4 -63 -10 -66
-5 -3 -10 -15 -10 -27 0 -15 4 -18 18 -13 90 38 201 47 240 19 12 -8 22 -26
22 -39 0 -24 0 -24 -37 -8 -105 43 -274 -32 -289 -128 -16 -99 158 -164 277
-105 40 20 49 14 49 -33 0 -40 10 -54 48 -66 l23 -7 -3 201 -3 201 -32 32
c-30 30 -38 32 -100 33 -38 0 -83 -3 -100 -7 -33 -7 -33 -7 -33 32 l0 40 178
0 177 0 22 -33 c45 -66 57 -108 58 -202 0 -80 -3 -97 -29 -149 -37 -76 -101
-140 -174 -174 -49 -23 -70 -27 -152 -27 -83 0 -102 3 -151 28 -62 30 -136
103 -167 164 -48 94 -49 221 -1 315 36 72 45 78 116 78 l63 0 0 -59z m-270
-174 l5 -87 -32 -6 c-41 -8 -99 11 -118 39 -31 44 -10 117 39 137 11 5 39 8
61 7 l40 -2 5 -88z m958 59 c69 -69 -10 -178 -112 -152 -22 5 -23 10 -23 88 0
48 5 86 11 91 22 16 98 0 124 -27z m-447 -97 c25 -13 24 -24 -3 -50 -62 -59
-219 -96 -262 -60 -23 19 -21 26 20 70 59 66 165 83 245 40z m-427 -216 l24
-28 -30 -33 c-54 -62 -62 -119 -26 -183 22 -39 69 -69 109 -69 47 0 107 39
128 84 12 23 21 50 21 59 0 18 19 21 59 10 22 -6 23 -9 19 -77 -8 -125 -67
-198 -187 -233 -169 -49 -335 97 -318 280 7 75 41 127 117 179 30 21 56 38 58
38 2 0 14 -12 26 -27z m781 -44 c58 -53 75 -93 75 -171 -2 -159 -98 -258 -252
-258 -107 0 -189 45 -228 125 -23 48 -40 185 -23 185 6 0 24 3 40 6 28 6 31 4
43 -40 24 -87 115 -135 194 -102 88 37 103 171 27 240 -26 24 -26 34 0 62 21
22 23 22 51 8 17 -9 50 -33 73 -55z m-669 -54 c33 -19 65 -38 72 -42 18 -11 1
-56 -34 -88 -27 -25 -73 -33 -109 -19 -19 8 -45 55 -45 85 0 23 39 99 51 99 3
0 33 -16 65 -35z m524 3 c45 -73 10 -158 -64 -158 -41 0 -89 37 -105 80 -10
29 -9 30 44 55 29 14 58 32 65 40 19 23 39 18 60 -17z"/>
<path d="M510 1949 c-70 -28 -140 -138 -140 -221 0 -128 137 -148 224 -33 106
138 50 307 -84 254z m54 -105 c26 -10 20 -68 -10 -104 -20 -23 -34 -30 -53
-28 -43 5 -41 63 3 111 26 28 34 31 60 21z"/>
<path d="M1971 1934 c-40 -33 -47 -77 -26 -151 13 -46 28 -69 71 -110 49 -48
58 -53 99 -53 75 0 102 38 95 134 -5 68 -54 146 -115 182 -53 31 -86 30 -124
-2z m114 -118 c19 -25 25 -44 23 -68 -3 -29 -6 -33 -33 -33 -50 0 -96 90 -63
123 21 21 46 13 73 -22z"/>
<path d="M425 1046 c-87 -38 -66 -202 37 -290 48 -41 88 -52 129 -36 106 45
55 262 -75 321 -48 22 -52 22 -91 5z m141 -127 c30 -60 6 -114 -40 -90 -48 26
-74 110 -39 129 23 14 61 -6 79 -39z"/>
<path d="M2075 1046 c-80 -35 -156 -170 -141 -251 7 -38 56 -85 87 -85 58 0
145 74 176 149 18 43 20 119 4 149 -12 23 -60 52 -83 52 -7 -1 -26 -7 -43 -14z
m33 -118 c7 -60 -58 -127 -94 -97 -21 18 -12 74 18 106 31 33 72 28 76 -9z"/>
<path d="M1237 549 c-85 -20 -127 -59 -127 -117 0 -45 50 -96 111 -112 88 -24
209 9 239 65 18 34 14 83 -8 109 -39 44 -147 72 -215 55z m111 -65 c46 -32 15
-74 -57 -74 -52 0 -71 12 -71 47 0 40 84 58 128 27z"/>
</g>
</svg>
